<?xml version="1.0" encoding="UTF-8" standalone="no"?>
<svg
   xmlns:dc="http://purl.org/dc/elements/1.1/"
   xmlns:cc="http://creativecommons.org/ns#"
   xmlns:rdf="http://www.w3.org/1999/02/22-rdf-syntax-ns#"
   xmlns:svg="http://www.w3.org/2000/svg"
   xmlns="http://www.w3.org/2000/svg"
   height="1164.4103"
   width="7234.272"
   xml:space="preserve"
   enable-background="new 0 0 1826.6104 1195.8213"
   viewBox="0 0 7234.2722 1164.4103"
   y="0px"
   x="0px"
   id="Layer_1"
   version="1.1"><metadata
     id="metadata4145"><rdf:RDF><cc:Work
         rdf:about=""><dc:format>image/svg+xml</dc:format><dc:type
           rdf:resource="http://purl.org/dc/dcmitype/StillImage" /><dc:title></dc:title></cc:Work></rdf:RDF></metadata><defs
     id="defs4143" /><g
     transform="matrix(-1,0,0,1,1802.6204,-15.705853)"
     id="g4137"><path
       id="path4139"
       d="m 750.7493,854.0999 c -22.7288,-0.3842 -44.3948,-3.5393 -65.6241,-9.7511 -35.3432,-10.3416 -68.5617,-25.6161 -100.683,-43.37 C 529.3781,770.544 478.9459,733.7685 432.2003,691.587 387.3056,651.0757 355.8009,602.4403 336.53,545.2876 321.0761,499.455 310.0468,452.5372 299.4264,405.4486 c -5.8884,-26.1078 -12.8733,-51.9708 -19.536,-77.9 -2.0385,-7.9331 -5.3492,-14.9907 -14.1018,-18.0502 -1.8588,-0.6497 -3.1594,-3.5734 -4.1923,-5.7039 -0.8948,-1.8455 -1.0454,-4.0518 -1.6577,-6.6652 -1.7508,1.3383 -2.9737,2.2731 -5.1432,3.9315 -4.6389,-16.6898 -9.1039,-32.7537 -13.8522,-49.8367 -1.7475,2.8285 -3.1303,5.0666 -5.1495,8.3348 -0.2208,-2.4028 -0.5681,-3.778 -0.4368,-5.1059 2.9308,-29.6362 -6.6477,-55.3953 -24.2085,-78.7355 -4.9069,-6.5217 -9.5881,-13.2128 -14.4401,-19.7764 -0.7687,-1.0399 -1.7676,-2.0313 -2.8737,-2.6822 C 158.3627,132.3855 122.5417,112.1842 83.1193,99.4912 71.8859,95.8743 60.2817,93.4091 49.0494,89.7893 42.8143,87.7799 37.0083,84.4493 30.9783,81.7835 29.9704,81.3379 28.7244,81.4192 27.733,80.9509 c -1.3218,-0.6245 -2.502,-1.5485 -3.7431,-2.3438 0.8157,-1.0785 1.4135,-2.7523 2.4809,-3.1429 9.9676,-3.6479 19.802,-7.9965 30.0831,-10.3849 25.1886,-5.8517 50.9459,-6.4944 76.5741,-4.5757 25.5461,1.9124 50.9661,5.4894 76.4575,8.1853 2.129,0.2252 4.5836,-0.2582 6.5432,-1.1596 26.3024,-12.0991 52.295,-24.9092 78.8782,-36.3491 21.6266,-9.3069 45.0748,-11.4744 68.2722,-13.8564 25.8087,-2.6502 51.5424,-2.2436 77.1352,2.7082 25.9537,5.0216 48.3993,16.5745 66.9192,35.443 18.559,18.9084 36.4738,38.4675 55.4323,56.9611 30.91,30.152 62.4221,59.9349 99.2335,82.7631 21.1081,13.09 44.2036,23.1404 66.9026,33.4637 41.0508,18.6694 82.4634,36.5441 123.7731,54.6409 2.331,1.0212 5.0797,1.1733 7.6621,1.5223 16.4794,2.2276 33.0109,4.1092 49.4432,6.6376 58.4807,8.9984 113.2567,29.7243 166.2637,54.9689 17.3491,8.2625 35.194,16.4787 50.5239,28.7637 8.3075,6.6574 8.5217,6.6268 -0.7123,12.2142 17.0022,2.4993 33.9426,5.5815 51.0181,7.3866 47.8245,5.0558 95.8805,4.0925 143.8563,4.2241 103.6559,0.2844 207.314,0.0994 310.9702,-0.2138 38.692,-0.1169 77.3102,0.9136 115.8536,4.2853 4.3691,0.3821 8.6768,1.4682 13.0128,2.2279 -0.024,0.4317 -0.049,0.8634 -0.073,1.2952 -2.624,0.4694 -5.2482,0.9387 -7.8723,1.4081 -0.067,0.3779 -0.1339,0.7558 -0.2009,1.1337 3.0016,0.7449 6.0031,1.4897 8.9845,2.2296 -0.7704,1.3541 -1.6572,2.9127 -2.4517,4.309 -13.6372,0 -27.7552,0.0601 -41.8724,-0.0254 -6.9966,-0.0424 -13.991,-0.4666 -20.9874,-0.4992 -4.2791,-0.02 -4.4673,0.3156 -6.5341,5.7144 2.3162,0.355 4.4595,0.8705 6.6243,0.9867 24.7916,1.3312 49.5886,2.5641 74.3772,3.9478 2.4207,0.1352 4.795,1.0997 7.1909,1.6793 -0.078,0.7579 -0.1556,1.5157 -0.2334,2.2736 -31.1464,0.8535 -62.2926,1.7069 -93.4388,2.5604 -0.025,0.4474 -0.051,0.8948 -0.076,1.3423 1.0195,0.2486 2.0366,0.7034 3.0588,0.7151 19.1332,0.22 38.2677,0.3437 57.3987,0.6752 1.139,0.0197 2.2507,1.6165 3.3752,2.4794 -1.1332,0.9417 -2.2218,2.6331 -3.4067,2.7036 -7.6461,0.4542 -15.3127,0.5865 -22.9741,0.7567 -3.6602,0.0814 -7.3236,0.014 -11.1635,1.0005 30.7761,6.8856 61.5524,13.7712 92.3285,20.6568 -0.019,0.4451 -0.038,0.8903 -0.057,1.3354 -3.3346,0.2811 -6.6681,0.7903 -10.0039,0.8069 -23.1642,0.1149 -46.3728,-0.7608 -69.4829,0.3817 -34.4243,1.7018 -68.8219,4.3333 -103.1508,7.4524 -30.8412,2.8021 -61.5828,6.7205 -92.3529,10.2797 -49.8909,5.7708 -98.123,17.0019 -141.2649,44.2377 -9.1277,5.7623 -17.7574,12.3263 -26.4817,18.7054 -1.9698,1.4404 -3.5271,3.5396 -5.0084,5.5331 -2.5348,3.4114 -2.1007,6.8284 1.4381,9.0564 3.4829,2.1929 7.2458,4.2686 11.1736,5.3691 15.0563,4.2183 30.2284,8.0237 45.3572,11.9835 0.9651,0.2527 2.0105,0.3484 2.8801,0.7898 3.2211,1.6352 8.7295,0.4082 8.7045,6.2194 -0.028,6.5107 -5.8218,14.1885 -10.943,15.0907 -1.8994,0.3345 -3.7986,0.6711 -5.7765,2.0544 7.1476,1.9997 14.295,3.9994 21.4425,5.9991 -0.035,0.6807 -0.07,1.3615 -0.1049,2.0422 -2.7158,0.9655 -5.3706,2.1864 -8.1578,2.8529 -12.9463,3.0959 -25.9435,5.9794 -38.8865,9.0884 -2.3818,0.5721 -5.2081,1.2459 -6.7854,2.8802 -7.2953,7.5591 -16.8073,8.1106 -26.2477,8.9885 -36.4865,3.3929 -73.0211,6.3278 -109.4529,10.2261 -24.662,2.6389 -49.2601,6.4207 -72.3538,16.2 -22.1257,9.3693 -40.1085,24.7789 -57.8438,40.5338 -39.6064,35.1837 -79.3579,70.2045 -118.9982,105.3502 -31.1281,27.5988 -68.1277,40.1772 -109.0291,42.6959 -3.7335,0.23 -5.1774,1.7897 -6.8796,4.9285 -8.6465,15.9441 -17.3547,31.8772 -26.7155,47.4076 -32.766,54.3617 -59.7832,111.4276 -81.3924,171.0795 -1.886,5.2064 -3.6426,10.4642 -5.2969,15.7491 -2.8472,9.0948 -1.0527,11.4774 8.3279,10.4863 13.9626,-1.4752 27.6166,0.3983 41.1155,3.5635 8.4036,1.9703 15.9718,5.9723 22.9891,10.8838 -0.1242,0.4821 -0.2485,0.964 -0.3727,1.446 -5.493,-0.6429 -10.9704,-1.5308 -16.4819,-1.8835 -17.7946,-1.1389 -35.7673,-2.869 -52.494,5.3978 -5.2443,2.5919 -10.1477,6.2588 -14.4803,10.2273 -8.3483,7.6466 -15.991,16.0608 -24.2884,23.7667 -5.6569,5.2538 -12.1744,9.1692 -20.2812,9.8572 -4.9055,0.4163 -7.6773,3.7274 -8.5327,8.4541 -0.526,2.9066 -0.6521,5.8855 -1.0724,9.9359 -7.0196,-14.045 -6.8064,-26.6589 2.3767,-38.8961 -0.348,-0.2438 -0.696,-0.4875 -1.0441,-0.7313 -1.9677,0.5001 -4.0169,0.7935 -5.8906,1.5321 -22.6937,8.9473 -46.181,15.0682 -70.1412,19.3381 -9.4423,1.6826 -18.9759,1.5179 -27.8016,-3.1703 -11.6876,-6.2087 -22.1235,-4.6625 -32.2673,3.87 -6.7903,5.7114 -14.4832,10.3497 -22.4016,14.802 3.161,-10.4554 9.0804,-19.1051 17.4356,-25.3162 8.2097,-6.1027 17.6058,-10.6094 27.1109,-16.1859 -2.9809,0 -5.3805,0 -7.7801,-5e-4 -5.6483,-0.01 -11.3284,-0.3971 -16.9354,0.079 -5.1912,0.4402 -10.6381,0.9962 -15.3705,2.9552 -6.5253,2.7013 -12.4851,6.7684 -18.6871,10.2506 -0.3043,-0.3096 -0.6085,-0.6193 -0.9128,-0.9288 5.604,-5.9054 11.2081,-11.8107 16.497,-17.384 -8.1772,-2.795 -16.5516,-6.1298 -25.1988,-8.4468 -5.7449,-1.5392 -11.5608,-0.2715 -16.6203,3.3881 -7.1517,5.1725 -14.351,10.2803 -21.5829,15.34 -1.875,1.3118 -3.9476,2.3412 -6.5065,2.9948 3.2336,-10.1506 9.1309,-18.734 17.4504,-24.9106 8.1718,-6.0671 17.5162,-10.5549 26.9756,-16.1052 -2.0389,-0.092 -3.8103,-0.2356 -5.5822,-0.2404 -6.8154,-0.018 -13.6567,-0.3494 -20.4376,0.1405 -4.6979,0.3396 -9.627,1.1156 -13.891,2.9805 -6.4969,2.8417 -12.508,6.7943 -18.9047,10.3757 2.491,-6.8223 19.8513,-22.619 29.6885,-26.0901 11.4969,-4.0565 23.1019,-4.1982 34.9926,-3.5441 21.1219,1.1619 42.2577,2.4143 63.3997,2.6851 7.2622,0.093 14.5617,-2.6293 21.8397,-4.0878 0.4789,-0.096 0.9103,-0.4088 1.3801,-0.5746 28.6679,-10.1125 50.1577,-28.3462 65.5321,-54.8074 13.1602,-22.6501 25.6184,-45.5488 35.6193,-69.7513 13.7897,-33.3715 27.4805,-66.7839 41.1952,-100.1864 0.6209,-1.5121 1.0599,-3.0983 1.8331,-5.3896 z m 67.6551,-2.3488 c -8.8099,0.4537 -17.6074,1.0409 -26.4145,1.2909 -3.2715,0.0929 -5.0255,1.438 -6.5818,4.217 -7.7296,13.8019 -15.6807,27.4792 -23.5249,41.217 -28.572,50.0389 -51.2384,102.6971 -69.5522,157.2678 -2.8212,8.4065 -0.9233,10.0638 8.0455,10.0868 10.9407,0.028 21.8942,0.7192 32.808,1.5641 2.7689,0.2142 4.2177,-0.1609 5.5924,-2.5547 6.1348,-10.6827 13.0425,-20.9657 18.5597,-31.9513 22.1312,-44.0675 39.8712,-90.0414 58.5797,-135.6082 6.1798,-15.0515 6.4406,-29.5746 2.4881,-45.5294 z m -89.0671,227.2388 c -4.4833,0 -7.7798,-0.3185 -10.9962,0.055 -14.2976,1.6589 -27.684,5.2762 -37.9559,16.5371 -6.8412,7.5 -14.3151,14.4237 -21.5239,21.5872 -1.426,1.417 -2.9348,2.7506 -4.4054,4.1227 0.3917,0.5471 0.7834,1.0942 1.1752,1.6414 28.186,-7.556 54.4681,-18.399 73.7062,-43.9432 z m -135.0755,39.9489 c 0.0413,0.275 0.0826,0.55 0.124,0.8252 8.5709,0.4408 17.14,0.9253 25.715,1.2623 0.9742,0.039 2.4886,-0.4735 2.8871,-1.2031 2.0342,-3.7238 3.7841,-7.6028 6.3016,-12.8093 -12.5086,4.2586 -23.7681,8.0917 -35.0277,11.9249 z" /></g><g
     id="text4204"
     style="font-style:normal;font-weight:normal;font-size:40px;line-height:125%;font-family:sans-serif;letter-spacing:0px;word-spacing:0px;fill:#000000;fill-opacity:1;stroke:none;stroke-width:1px;stroke-linecap:butt;stroke-linejoin:miter;stroke-opacity:1"><path
       id="path4228"
       style="font-style:normal;font-variant:normal;font-weight:normal;font-stretch:normal;font-size:1000px;font-family:Hanken;-inkscape-font-specification:Hanken"
       d="m 2184.3035,1154.4952 -213,0 q -19,0 -32,-13 -13,-13 -13,-31 l 0,-700.99996 q 0,-18 13,-31 13,-13 32,-13 l 146,0 q 38,0 72,15 34,14 59,39 25,25 39,59 15,34 15,72 0,60 -36,110 39,13 71,36 32,22 55,53 23,31 36,69 13,37 13,79 0,53 -20,100 -20,46.99996 -55,81.99996 -35,35 -82,55 -47,20 -100,20 z m -67,-700.99996 -102,0 0,193 112,0 q 16,0 31,-8 16,-9 28,-22 12,-14 19,-31 8,-17 8,-35 0,-20 -8,-37 -7,-18 -20,-31 -13,-14 -31,-21 -17,-8 -37,-8 z m 67,282 -169,0 0,329.99996 169,0 q 35,0 65,-13 31,-13 54,-36 23,-22.99996 36,-52.99996 13,-31 13,-66 0,-35 -14,-65 -13,-30 -36,-51 -22,-22 -53,-34 -31,-12 -65,-12 z" /><path
       id="path4230"
       style="font-style:normal;font-variant:normal;font-weight:normal;font-stretch:normal;font-size:1000px;font-family:Hanken;-inkscape-font-specification:Hanken"
       d="m 2874.0222,1154.4952 -267,0 q -18,0 -31,-13 -13,-13 -13,-31 l 0,-700.99996 q 0,-19 13,-31 13,-13 31,-13 19,0 31,13 13,12 13,31 l 0,656.99996 223,0 q 19,0 32,13 13,13 13,31 0,18 -13,31 -13,13 -32,13 z" /><path
       id="path4232"
       style="font-style:normal;font-variant:normal;font-weight:normal;font-stretch:normal;font-size:1000px;font-family:Hanken;-inkscape-font-specification:Hanken"
       d="m 3594.616,1150.4952 q -8,4 -17,4 -13,0 -25,-7 -11,-7 -16,-20 l -79,-185.99996 -363,0 -79,185.99996 q -7,17 -24,24 -17,7 -34,-1 -17,-7 -24,-24 -7,-17 1,-34 l 90,-212.99996 211,-494 q 5,-13 16,-20 11,-7 25,-7 13,0 24,7 11,7 16,20 76,178 151,354 75,175 151,352.99996 7,17 0,34 -7,17 -24,24 z m -318,-633.99996 -144,336 287,0 -143,-336 z" /><path
       id="path4234"
       style="font-style:normal;font-variant:normal;font-weight:normal;font-stretch:normal;font-size:1000px;font-family:Hanken;-inkscape-font-specification:Hanken"
       d="m 4098.2253,1154.4952 q -83,0 -156,-31 -72,-32 -126,-86 -54,-53.99996 -86,-125.99996 -31,-73 -31,-156 0,-82 31,-153 32,-72 86,-124 54,-53 126,-83 73,-30 156,-30 80,0 152,30 72,29 129,86 14,14 14,32 0,18 -14,31 -13,13 -31,13 -18,0 -31,-13 -45,-45 -101,-68 -56,-23 -118,-23 -65,0 -122,24 -56,23 -98,64 -42,40 -66,95 -24,55 -24,119 0,64 24,121 25,56 67,98 42,41.99996 98,66.99996 57,24 121,24 62,0 118,-23 56,-23 101,-66.99996 13,-14 31,-14 18,0 31,14 14,13 14,30.99996 0,18 -14,31 -57,57 -129,87 -72,30 -152,30 z" /><path
       id="path4236"
       style="font-style:normal;font-variant:normal;font-weight:normal;font-stretch:normal;font-size:1000px;font-family:Hanken;-inkscape-font-specification:Hanken"
       d="m 4991.6316,1154.4952 q -18,0 -30,-12 l -336,-321.99996 0,289.99996 q 0,18 -13,31 -12,13 -31,13 -18,0 -31,-13 -13,-13 -13,-31 l 0,-700.99996 q 0,-19 13,-31 13,-13 31,-13 19,0 31,13 13,12 13,31 l 0,290 336,-322 q 13,-13 31,-12 18,0 31,13 13,14 12,32 0,18 -13,31 l -332,318 332,318.99996 q 13,13 13,31 1,18 -12,31 -12,14 -32,14 z" /><path
       id="path4238"
       style="font-style:normal;font-variant:normal;font-weight:normal;font-stretch:normal;font-size:1000px;font-family:Hanken;-inkscape-font-specification:Hanken"
       d="m 5416.7253,1154.4952 -213,0 q -19,0 -32,-13 -13,-13 -13,-31 l 0,-700.99996 q 0,-18 13,-31 13,-13 32,-13 l 146,0 q 38,0 72,15 34,14 59,39 25,25 39,59 15,34 15,72 0,60 -36,110 39,13 71,36 32,22 55,53 23,31 36,69 13,37 13,79 0,53 -20,100 -20,46.99996 -55,81.99996 -35,35 -82,55 -47,20 -100,20 z m -67,-700.99996 -102,0 0,193 112,0 q 16,0 31,-8 16,-9 28,-22 12,-14 19,-31 8,-17 8,-35 0,-20 -8,-37 -7,-18 -20,-31 -13,-14 -31,-21 -17,-8 -37,-8 z m 67,282 -169,0 0,329.99996 169,0 q 35,0 65,-13 31,-13 54,-36 23,-22.99996 36,-52.99996 13,-31 13,-66 0,-35 -14,-65 -13,-30 -36,-51 -22,-22 -53,-34 -31,-12 -65,-12 z" /><path
       id="path4240"
       style="font-style:normal;font-variant:normal;font-weight:normal;font-stretch:normal;font-size:1000px;font-family:Hanken;-inkscape-font-specification:Hanken"
       d="m 5840.4441,1154.4952 q -19,0 -32,-13 -13,-13 -13,-31 l 0,-700.99996 q 0,-18 13,-31 13,-13 32,-13 18,0 31,13 13,13 13,31 l 0,700.99996 q 0,18 -13,31 -13,13 -31,13 z" /><path
       id="path4242"
       style="font-style:normal;font-variant:normal;font-weight:normal;font-stretch:normal;font-size:1000px;font-family:Hanken;-inkscape-font-specification:Hanken"
       d="m 6272.3035,807.49524 -12,0 13,-23 181,302.99996 q 6,11 6,23 0,18 -13,31 -13,13 -31,13 -12,0 -23,-6 -10,-6 -16,-16 l -194,-324.99996 -43,0 0,302.99996 q 0,18 -13,31 -13,13 -31,13 -19,0 -32,-13 -13,-13 -13,-31 l 0,-700.99996 q 0,-18 13,-31 13,-13 32,-13 l 176,0 q 46,0 86,18 41,17 71,47 30,30 47,70 18,40 18,86 0,46 -18,86 -17,40 -47,70 -30,30 -71,48 -40,17 -86,17 z m 0,-354 -132,0 0,265 132,0 q 27,0 51,-10 25,-11 43,-29 18,-18 28,-42 11,-24 11,-51 0,-27 -11,-51 -10,-25 -28,-43 -18,-18 -43,-28 -24,-11 -51,-11 z" /><path
       id="path4244"
       style="font-style:normal;font-variant:normal;font-weight:normal;font-stretch:normal;font-size:1000px;font-family:Hanken;-inkscape-font-specification:Hanken"
       d="m 6884.2722,1154.4952 -246,0 q -12,0 -23,-7 -11,-7 -16,-18 -9,-16 -2,-36 l 0,-683.99996 q 0,-18 13,-31 13,-13 32,-13 l 241,0 q 79,0 144,34 65,34 111,89 46,55 71,125 25,70 25,142 0,89 -31,163 -30,73 -80,125.99996 -49,52 -112,81 -63,29 -127,29 z m -1,-700.99996 -197,0 0,612.99996 198,0 q 57,0 104,-27 48,-28 83,-71.99996 35,-44 54,-100 20,-56 20,-112 0,-57 -19,-111 -19,-55 -54,-97 -34,-43 -83,-68 -48,-26 -106,-26 z" /></g></svg>